<svg xmlns="http://www.w3.org/2000/svg" width="30.435" height="30.435" viewBox="0 0 30.435 30.435">
  <g id="Group_1039" data-name="Group 1039" transform="translate(0 0.111)">
    <rect id="Rectangle_33" data-name="Rectangle 33" width="30.435" height="30.435" transform="translate(0 -0.111)" fill="none"/>
    <path id="Path_3718" data-name="Path 3718" d="M6773,8183.5c0-1.46,1.371-2.726,3.859-3.561a.814.814,0,0,1,.519,1.544c-2.03.681-2.75,1.513-2.75,2.017,0,1.184,3.486,2.9,8.946,2.9s8.948-1.72,8.948-2.9c0-.5-.722-1.336-2.752-2.02a.813.813,0,1,1,.518-1.541c2.489.835,3.861,2.1,3.861,3.561,0,2.943-5.45,4.531-10.574,4.531S6773,8186.439,6773,8183.5Zm9.92-.678c-.272-.368-6.667-9.044-6.667-13.5a7.32,7.32,0,0,1,14.64,0c0,4.455-6.394,13.131-6.665,13.5a.814.814,0,0,1-1.308,0Zm-5.04-13.5c0,2.909,3.654,8.718,5.693,11.62,2.039-2.9,5.693-8.715,5.693-11.62a5.693,5.693,0,1,0-11.386,0Zm2.44,0a3.253,3.253,0,1,1,3.252,3.255A3.256,3.256,0,0,1,6780.321,8169.319Zm1.625,0a1.627,1.627,0,1,0,1.627-1.625A1.628,1.628,0,0,0,6781.946,8169.319Z" transform="translate(-6768.614 -8159.868)" fill="#f49da1"/>
  </g>
</svg>
