<svg xmlns="http://www.w3.org/2000/svg" width="46.208" height="37.007" viewBox="0 0 46.208 37.007">
  <g id="Group_1152" data-name="Group 1152" transform="translate(-818.896 -1194)">
    <g id="Group_1156" data-name="Group 1156">
      <path id="Path_3771" data-name="Path 3771" d="M44.107,50.577H2.1a2.107,2.107,0,0,1-2.1-2.1v-23.1a2.107,2.107,0,0,1,2.1-2.1H44.107a2.107,2.107,0,0,1,2.1,2.1v23.1A2.107,2.107,0,0,1,44.107,50.577Z" transform="translate(818.896 1170.728)" fill="#0e9347"/>
      <path id="Path_3772" data-name="Path 3772" d="M262.225,232.727a7.029,7.029,0,0,0-5.881,3.045,7.833,7.833,0,0,0-3.571-.945,7.348,7.348,0,0,0-7.246,6.3h21.949a2.136,2.136,0,0,0,2.1-1.785A7.481,7.481,0,0,0,262.225,232.727Z" transform="translate(595.527 980.176)" fill="#0d8944"/>
      <path id="Path_3773" data-name="Path 3773" d="M61.079,69.65H27.474a4.213,4.213,0,0,0-4.2-4.2v-14.7a4.213,4.213,0,0,0,4.2-4.2H61.079a4.213,4.213,0,0,0,4.2,4.2v14.7A4.213,4.213,0,0,0,61.079,69.65Z" transform="translate(797.725 1149.554)" fill="#3bb54a"/>
      <g id="Group_1152-2" data-name="Group 1152" transform="translate(827.299 1198.2)">
        <path id="Path_3774" data-name="Path 3774" d="M268.577,232.727a7.029,7.029,0,0,0-5.881,3.045,7.833,7.833,0,0,0-3.571-.945,7.214,7.214,0,0,0-6.616,4.2h17.118a4.191,4.191,0,0,1,4.1-4.2A7.592,7.592,0,0,0,268.577,232.727Z" transform="translate(-238.122 -218.025)" fill="#0e9347"/>
        <ellipse id="Ellipse_72" data-name="Ellipse 72" cx="8.401" cy="9.452" rx="8.401" ry="9.452" transform="translate(6.301)" fill="#0e9347"/>
        <circle id="Ellipse_73" data-name="Ellipse 73" cx="2.1" cy="2.1" r="2.1" transform="translate(0 7.351)" fill="#0e9347"/>
        <circle id="Ellipse_74" data-name="Ellipse 74" cx="2.1" cy="2.1" r="2.1" transform="translate(25.204 7.351)" fill="#0e9347"/>
      </g>
      <path id="Path_3775" data-name="Path 3775" d="M214.706,109.98h-2.1a1.05,1.05,0,0,1,0-2.1h3.151a1.05,1.05,0,1,0,0-2.1h-1.05a1.05,1.05,0,0,0-2.1,0,3.151,3.151,0,0,0,0,6.3h2.1a1.05,1.05,0,0,1,0,2.1h-3.151a1.05,1.05,0,0,0,0,2.1h1.05a1.05,1.05,0,0,0,2.1,0,3.151,3.151,0,0,0,0-6.3Z" transform="translate(628.344 1096.622)" fill="#89c763"/>
    </g>
    <g id="Group_1157" data-name="Group 1157" transform="translate(0 -5)">
      <circle id="Ellipse_75" data-name="Ellipse 75" cx="7.351" cy="7.351" r="7.351" transform="translate(838.85 1215.003)" fill="#ffca5d"/>
      <circle id="Ellipse_76" data-name="Ellipse 76" cx="7.351" cy="7.351" r="7.351" transform="translate(848.301 1212.903)" fill="#f6b545"/>
      <path id="Path_3776" data-name="Path 3776" d="M333.169,232.727a7.351,7.351,0,1,0,7.351,7.351A7.306,7.306,0,0,0,333.169,232.727Zm0,12.6a5.251,5.251,0,1,1,5.251-5.251A5.2,5.2,0,0,1,333.169,245.329Z" transform="translate(522.484 980.176)" fill="#ffcb5b"/>
      <path id="Path_3777" data-name="Path 3777" d="M407.273,321.428h0a7.218,7.218,0,0,0,7.351-7.246h-.105a1.117,1.117,0,0,0-1.05.945,6.349,6.349,0,0,1-2,3.781,5.95,5.95,0,0,1-3.256,1.575A.941.941,0,0,0,407.273,321.428Z" transform="translate(448.379 906.072)" fill="#f6b545"/>
      <path id="Path_3778" data-name="Path 3778" d="M333.169,233.867h0a7.218,7.218,0,0,0-7.351,7.246h.105a1.117,1.117,0,0,0,1.05-.945,6.349,6.349,0,0,1,2-3.781,5.951,5.951,0,0,1,3.256-1.575A.941.941,0,0,0,333.169,233.867Z" transform="translate(522.484 979.141)" fill="#ffe27a"/>
      <path id="Path_3779" data-name="Path 3779" d="M349.826,261.986a5.2,5.2,0,0,1,5.251-5.251,4.954,4.954,0,0,1,3.361,1.26,5.235,5.235,0,0,0-9.346,3.256,5.035,5.035,0,0,0,1.89,3.991A4.925,4.925,0,0,1,349.826,261.986Z" transform="translate(501.311 959.003)" fill="#f19920"/>
      <path id="Path_3780" data-name="Path 3780" d="M437.418,312.145a.386.386,0,0,1-.315-.105.508.508,0,0,1,0-.735,3.5,3.5,0,0,0,.945-2.415.525.525,0,1,1,1.05,0,4.849,4.849,0,0,1-1.155,3.151A1.142,1.142,0,0,1,437.418,312.145Z" transform="translate(421.385 911.365)" fill="#ffcb5b"/>
      <g id="Group_1153" data-name="Group 1153" transform="translate(848.406 1215.003)">
        <path id="Path_3781" data-name="Path 3781" d="M396.687,285.575a.992.992,0,0,1-1.05-1.05v-4.2a1.05,1.05,0,1,1,2.1,0v4.2A.992.992,0,0,1,396.687,285.575Z" transform="translate(-389.441 -277.174)" fill="#f19920"/>
        <path id="Path_3782" data-name="Path 3782" d="M338.113,267.447a8.533,8.533,0,0,0-5.041-5.671A8.78,8.78,0,0,0,329.081,256a7.591,7.591,0,0,0-2.1,5.146,7.306,7.306,0,0,0,7.351,7.351A6.09,6.09,0,0,0,338.113,267.447Z" transform="translate(-326.981 -256)" fill="#f19920"/>
      </g>
      <g id="Group_1154" data-name="Group 1154" transform="translate(850.402 1216.368)">
        <path id="Path_3783" data-name="Path 3783" d="M350.98,279a5.524,5.524,0,0,1-1.26-3.361,5.084,5.084,0,0,1,1.68-3.781,4.569,4.569,0,0,0-.63-.735,5.145,5.145,0,0,0-1.68,3.886A5.035,5.035,0,0,0,350.98,279Z" transform="translate(-349.09 -271.128)" fill="#e78825"/>
        <path id="Path_3784" data-name="Path 3784" d="M395.636,321.164v1.47a1.05,1.05,0,0,0,2.1,0v-.21A8.581,8.581,0,0,0,395.636,321.164Z" transform="translate(-391.435 -316.648)" fill="#e78825"/>
      </g>
      <path id="Path_3785" data-name="Path 3785" d="M337.055,268.5a6.712,6.712,0,0,0-.84-2,5.082,5.082,0,0,1-3.045,1.05,5.2,5.2,0,0,1-5.251-5.251,5.145,5.145,0,0,1,1.68-3.886,6.407,6.407,0,0,0-1.68-1.26,7.591,7.591,0,0,0-2.1,5.146,7.306,7.306,0,0,0,7.351,7.351A7.041,7.041,0,0,0,337.055,268.5Z" transform="translate(522.484 957.946)" fill="#f6b545"/>
      <path id="Path_3786" data-name="Path 3786" d="M410.843,372.364a7.26,7.26,0,0,1-2.625,1.05,1.117,1.117,0,0,0-.945,1.05h0a7.042,7.042,0,0,0,3.886-1.155Z" transform="translate(448.381 853.141)" fill="#f19920"/>
      <path id="Path_3787" data-name="Path 3787" d="M327.918,257.164a7.591,7.591,0,0,0-2.1,5.146h.105a1.117,1.117,0,0,0,1.05-.945,6.534,6.534,0,0,1,1.89-3.676A4.26,4.26,0,0,1,327.918,257.164Z" transform="translate(522.484 957.944)" fill="#ffcb5b"/>
      <circle id="Ellipse_77" data-name="Ellipse 77" cx="7.351" cy="7.351" r="7.351" transform="translate(838.85 1215.003)" fill="#f6b545"/>
      <path id="Path_3788" data-name="Path 3788" d="M290.909,321.532a7.278,7.278,0,0,0,.315,2.1h.735A7.326,7.326,0,0,0,299,314.181h-.735A7.306,7.306,0,0,0,290.909,321.532Z" transform="translate(554.242 906.073)" fill="#f19920"/>
      <path id="Path_3789" data-name="Path 3789" d="M228.441,256a7.351,7.351,0,1,0,7.351,7.351A7.306,7.306,0,0,0,228.441,256Zm0,12.6a5.251,5.251,0,1,1,5.251-5.251A5.2,5.2,0,0,1,228.441,268.6Z" transform="translate(617.76 959.003)" fill="#ffcb5b"/>
      <path id="Path_3790" data-name="Path 3790" d="M302.545,344.7h0a7.218,7.218,0,0,0,7.351-7.246h-.105a1.117,1.117,0,0,0-1.05.945,6.349,6.349,0,0,1-2,3.781,5.951,5.951,0,0,1-3.256,1.575A.941.941,0,0,0,302.545,344.7Z" transform="translate(543.656 884.899)" fill="#f6b545"/>
      <path id="Path_3791" data-name="Path 3791" d="M228.441,257.14h0a7.218,7.218,0,0,0-7.351,7.246h.105a1.117,1.117,0,0,0,1.05-.945,6.349,6.349,0,0,1,2-3.781,5.951,5.951,0,0,1,3.256-1.575A.941.941,0,0,0,228.441,257.14Z" transform="translate(617.76 957.968)" fill="#ffe27a"/>
      <path id="Path_3792" data-name="Path 3792" d="M245.1,285.259a5.2,5.2,0,0,1,5.251-5.251,4.953,4.953,0,0,1,3.361,1.26,5.235,5.235,0,0,0-9.347,3.256,5.035,5.035,0,0,0,1.89,3.991A4.926,4.926,0,0,1,245.1,285.259Z" transform="translate(596.588 937.831)" fill="#f19920"/>
      <path id="Path_3793" data-name="Path 3793" d="M332.691,335.417a.386.386,0,0,1-.315-.105.508.508,0,0,1,0-.735,3.5,3.5,0,0,0,.945-2.415.525.525,0,1,1,1.05,0,4.849,4.849,0,0,1-1.155,3.151A1.142,1.142,0,0,1,332.691,335.417Z" transform="translate(516.66 890.193)" fill="#ffcb5b"/>
      <path id="Path_3794" data-name="Path 3794" d="M291.959,308.848a.992.992,0,0,1-1.05-1.05v-4.2a1.05,1.05,0,0,1,2.1,0v4.2A.992.992,0,0,1,291.959,308.848Z" transform="translate(554.242 916.657)" fill="#f19920"/>
      <g id="Group_1155" data-name="Group 1155" transform="translate(844.102 1220.254)">
        <path id="Path_3795" data-name="Path 3795" d="M296.791,314.286a6.142,6.142,0,0,1,.42,2,5.2,5.2,0,0,1-5.251,5.251,3.572,3.572,0,0,1-1.05-.105v.105a7.278,7.278,0,0,0,.315,2.1h.735A7.326,7.326,0,0,0,299,314.181h-.735A6.944,6.944,0,0,0,296.791,314.286Z" transform="translate(-289.86 -314.181)" fill="#f6b545"/>
        <circle id="Ellipse_78" data-name="Ellipse 78" cx="7.351" cy="7.351" r="7.351" transform="translate(0 1.05)" fill="#f6b545"/>
      </g>
      <path id="Path_3796" data-name="Path 3796" d="M286.623,325.818a7.351,7.351,0,1,0,7.351,7.351A7.306,7.306,0,0,0,286.623,325.818Zm0,12.6a5.251,5.251,0,1,1,5.251-5.251A5.2,5.2,0,0,1,286.623,338.42Z" transform="translate(564.828 895.486)" fill="#ffcb5b"/>
      <path id="Path_3797" data-name="Path 3797" d="M360.727,414.519h0a7.218,7.218,0,0,0,7.351-7.246h-.105a1.117,1.117,0,0,0-1.05.945,6.349,6.349,0,0,1-2,3.781,5.951,5.951,0,0,1-3.256,1.575A.941.941,0,0,0,360.727,414.519Z" transform="translate(490.725 821.382)" fill="#f6b545"/>
      <path id="Path_3798" data-name="Path 3798" d="M286.623,326.958h0a7.218,7.218,0,0,0-7.351,7.246h.105a1.117,1.117,0,0,0,1.05-.945,6.349,6.349,0,0,1,2-3.781,5.951,5.951,0,0,1,3.256-1.575A.941.941,0,0,0,286.623,326.958Z" transform="translate(564.828 894.451)" fill="#ffe27a"/>
      <path id="Path_3799" data-name="Path 3799" d="M303.28,355.077a5.2,5.2,0,0,1,5.251-5.251,4.953,4.953,0,0,1,3.361,1.26,5.235,5.235,0,0,0-9.347,3.256,5.035,5.035,0,0,0,1.89,3.991A4.925,4.925,0,0,1,303.28,355.077Z" transform="translate(543.656 874.313)" fill="#f19920"/>
      <path id="Path_3800" data-name="Path 3800" d="M390.872,405.235a.386.386,0,0,1-.315-.105.508.508,0,0,1,0-.735,3.5,3.5,0,0,0,.945-2.415.525.525,0,0,1,1.05,0,4.849,4.849,0,0,1-1.155,3.151A1.141,1.141,0,0,1,390.872,405.235Z" transform="translate(463.73 826.676)" fill="#ffcb5b"/>
      <path id="Path_3801" data-name="Path 3801" d="M350.141,378.665a.992.992,0,0,1-1.05-1.05v-4.2a1.05,1.05,0,0,1,2.1,0v4.2A.992.992,0,0,1,350.141,378.665Z" transform="translate(501.311 853.141)" fill="#f19920"/>
    </g>
  </g>
</svg>
