<svg xmlns="http://www.w3.org/2000/svg" width="30" height="30" viewBox="0 0 30 30">
  <g id="Group_1053" data-name="Group 1053" transform="translate(-1161 -463)">
    <rect id="Rectangle_37" data-name="Rectangle 37" width="30" height="30" transform="translate(1161 463)" fill="none"/>
    <path id="Path_3717" data-name="Path 3717" d="M6776.849,8178.928a2.308,2.308,0,0,1-2.31-2.308v-10h-.768a.77.77,0,1,1,0-1.54h13.849a.77.77,0,0,1,0,1.54h-.77v10a2.309,2.309,0,0,1-2.308,2.308Zm6.154-10v6.155a.77.77,0,1,0,1.54,0v-6.155a.77.77,0,0,0-1.54,0Zm-3.076,0v6.155a.769.769,0,1,0,1.537,0v-6.155a.769.769,0,1,0-1.537,0Zm-3.078,0v6.155a.769.769,0,1,0,1.538,0v-6.155a.769.769,0,1,0-1.538,0Zm.769-5.386a.77.77,0,0,1,0-1.54h6.155a.77.77,0,1,1,0,1.54Z" transform="translate(-5605 -7692)" fill="#ff3841"/>
  </g>
</svg>
