<svg id="Group_1039" data-name="Group 1039" xmlns="http://www.w3.org/2000/svg" width="30.435" height="30.435" viewBox="0 0 30.435 30.435">
  <rect id="Rectangle_33" data-name="Rectangle 33" width="30.435" height="30.435" fill="none"/>
  <path id="Path_3719" data-name="Path 3719" d="M6785.122,8186.166a1.272,1.272,0,0,1-1.27-1.271v-.106l.9-3.626a1.66,1.66,0,0,1,.478-1.112l1.716-1.715a5.746,5.746,0,0,0-1.637-.243,5.806,5.806,0,0,0-4.951,2.779.911.911,0,0,1-.687.344.668.668,0,0,1-.422-.131.811.811,0,0,1-.267-1.086,7.419,7.419,0,0,1,6.3-3.521,7.314,7.314,0,0,1,2.914.606l4.577-4.575c.872-.821,2.46-.452,3.837.924a5.005,5.005,0,0,1,1.217,1.854,1.9,1.9,0,0,1-.292,1.984l-7.57,7.544a1.642,1.642,0,0,1-1.11.477l-3.626.874Zm8.761-12.521-7.517,7.544v.213l-.769,3.043,3.045-.767h.106a.154.154,0,0,0,.106-.027l7.517-7.516a2.5,2.5,0,0,0-.875-1.614,2.654,2.654,0,0,0-1.541-.883A.314.314,0,0,0,6793.883,8173.645Zm-13.472,11.964a12.308,12.308,0,1,1,16.172-16.2.789.789,0,0,1-1.456.609,10.714,10.714,0,1,0-14.08,14.107.809.809,0,0,1,.422,1.031.793.793,0,0,1-.74.5A1.3,1.3,0,0,1,6780.411,8185.609Zm.609-15.166a4.261,4.261,0,1,1,4.262,4.263A4.258,4.258,0,0,1,6781.02,8170.443Zm1.588.027a2.673,2.673,0,1,0,2.673-2.673A2.667,2.667,0,0,0,6782.608,8170.47Z" transform="translate(-6770.314 -8158.544)" fill="#f49da1"/>
</svg>
