<svg xmlns="http://www.w3.org/2000/svg" width="30.435" height="30.435" viewBox="0 0 30.435 30.435">
  <g id="Group_1039" data-name="Group 1039" transform="translate(0 0.111)">
    <rect id="Rectangle_33" data-name="Rectangle 33" width="30.435" height="30.435" transform="translate(0 -0.111)" fill="none"/>
    <g id="Group_1112" data-name="Group 1112" transform="translate(-6.55 -9.202)">
      <path id="Path_3764" data-name="Path 3764" d="M26.337,14.232a6.732,6.732,0,0,0-4.047,1.247,6.572,6.572,0,0,0-8.564.416l-.222.222a6.963,6.963,0,0,0,0,9.673l7.317,7.594a1.9,1.9,0,0,0,1.414.61h.028a1.863,1.863,0,0,0,1.386-.582l7.262-7.456a6.963,6.963,0,0,0,0-9.673A6.5,6.5,0,0,0,26.337,14.232ZM29.33,24.4l-7.068,7.262-7.179-7.373a4.754,4.754,0,0,1,0-6.6l.166-.166a4.281,4.281,0,0,1,2.993-1.192,4.408,4.408,0,0,1,3.16,1.33l.831.942.831-.831.111-.111a4.351,4.351,0,0,1,6.153.166h0A4.719,4.719,0,0,1,29.33,24.4Z" transform="translate(0 0)" fill="#f49da1"/>
    </g>
  </g>
</svg>
