<svg xmlns="http://www.w3.org/2000/svg" xmlns:xlink="http://www.w3.org/1999/xlink" width="211" height="304" viewBox="0 0 211 304">
  <defs>
    <clipPath id="clip-path">
      <rect id="Rectangle_12" data-name="Rectangle 12" width="211" height="304" transform="translate(1229 3538)" fill="#feeff0"/>
    </clipPath>
  </defs>
  <g id="Mask_Group_6" data-name="Mask Group 6" transform="translate(-1229 -3538)" clip-path="url(#clip-path)">
    <path id="Path_834" data-name="Path 834" d="M119.671,394.827c-.526-1.079-1.217-2.121-1.844-3.209s-1.3-2.2-2.01-3.31c-1.346-2.25-2.96-4.454-4.509-6.741-1.568-2.278-3.264-4.528-5-6.759-1.687-2.268-3.44-4.491-5.2-6.667l-.783-.972c-23.863,4.572-55.886-.885-77.837-26.784C1.519,315.642,8.141,276.85,12.83,268.9l.025-.043.019-.032.04-.066.012-.019q.054-.087.107-.168l0-.007a3.579,3.579,0,0,1,.782-.9l0,0,.053-.038c4.537-3.089,21.246-7.829,65.914,17.1a54.494,54.494,0,0,1,16.3,13.585q-1-5.214-1.908-10.357-.6-3.4-1.166-6.773a58.352,58.352,0,0,1-1.647-8.6q-.184-1.622-.269-3.273-1.1-7.154-2.053-14.119c-.308-.708-.631-1.465-.959-2.263-.526-1.208-1.1-2.5-1.641-3.882-.581-1.374-1.217-2.8-1.807-4.3s-1.328-2.988-1.927-4.546c-.627-1.558-1.319-3.117-2.029-4.666-.627-1.568-1.319-3.154-2.019-4.629-.728-1.475-1.337-2.978-2.066-4.334-.747-1.365-1.392-2.674-2.158-3.928l-.434-.7c-43.055-8.015-49.3-12.179-63.93-41.056C4.153,169.2,1.54,156.706.54,145.9l-.008-.083c-.009-.094-.017-.187-.026-.281-.014-.155-.027-.308-.041-.462l-.007-.079a121.065,121.065,0,0,1,.732-27.946l0-.01,0-.01v-.008s20.868-8.069,53.382,12.375c.141.089.279.177.419.268l.115.076.3.2.126.086.292.2.12.084.314.223.087.063q.623.45,1.221.926l.027.022c.125.1.248.2.372.3l.038.031c.124.1.251.207.373.311l.014.012c24.881,21.048,19.558,76.593,18.159,88.073a42.032,42.032,0,0,1,3.137,4.372,71.888,71.888,0,0,1,4.8,9.23c1.019,2.375,1.94,4.787,2.756,7.143q-.8-6.835-1.447-13.442c-1.872-18.793-2.527-36.12-2.564-51.464.024-9.892.419-18.957,1.017-27.084-7.164-7.754-26.978-18.418-44.339-31.6-.1-.073-.19-.145-.285-.22l-.117-.092-.171-.136-.178-.144-.187-.153-.156-.13-.118-.1-.16-.136-.224-.2-.16-.142-.114-.1-.154-.14-.189-.175-.156-.147-.168-.16-.1-.1c-.089-.086-.176-.171-.264-.258L37,114.879c-.092-.091-.186-.185-.277-.278l-.036-.037c-16.7-17-19.187-56.93.612-67.833l.014-.008.15-.082q.464-.252.945-.48a18.855,18.855,0,0,1,8.648-1.822h.042l.19.006.073,0,.179.007.089,0,.16.008.117.007.145.009.151.011.1.008.25.021.07.007.223.022.049.005.219.024.074.009.21.026.058.008.233.032.036.005a30.642,30.642,0,0,1,8.834,2.8C66.4,16.078,102.521-1.437,107.407.092c3.4,1.057,10.68,5.86,17.465,23.891l.039.1.058.155.053.143.048.13.068.185.043.117.075.2.029.078.093.256.016.044a187.642,187.642,0,0,1,7.953,31.938l.01.06c.124.728.247,1.464.368,2.211.029.181.058.363.086.543.01.064.02.135.03.2.018.117.034.229.051.346.01.067.019.136.029.2.016.114.033.231.048.345.009.067.018.134.026.2.015.111.029.223.043.333.01.078.019.154.028.232.012.1.025.2.036.3.009.078.018.154.026.232q.017.152.034.3c.008.077.016.155.024.232.011.1.021.2.031.305.007.071.014.145.021.216.01.106.019.209.029.314.007.074.013.149.019.222.009.1.017.211.025.313.005.068.011.132.016.2.009.118.017.237.025.354,0,.053.008.11.011.163.009.133.017.271.025.4,0,.036,0,.073.007.11.008.145.016.29.023.434,0,.03,0,.06,0,.091q.049,1.049.058,2.076c0,.024,0,.048,0,.072,0,.147,0,.3,0,.443,0,.022,0,.049,0,.071,0,.143,0,.292,0,.435,0,.03,0,.056,0,.086,0,.142,0,.289-.007.431,0,.021,0,.049,0,.07,0,.142-.007.281-.011.422,0,.032,0,.066,0,.1,0,.139-.01.282-.015.42l0,.067c-.006.148-.013.3-.021.447l0,.047q-.012.235-.026.469v.025c-.01.163-.021.327-.032.49v0c-1.887,26.434-23.985,41.465-37.722,48.31a201.629,201.629,0,0,1-9.741,30.691c-.233,7.5-.3,15.76-.082,24.685.424,15.224,1.789,32.367,3.91,50.993q1.314,11.437,3.123,23.581c10.192-28.328,46.113-51.991,56.114-53.265a12.3,12.3,0,0,1,1.43-.1c11.953-.182,39.508,13.789,39.162,51.1-.321,34.746-59.827,63.842-72.469,69.633-.486,1.327-.943,2.682-1.375,4.044a111.655,111.655,0,0,0-4.463,18.784q-.064.442-.122.866,1.357,5.523,2.8,11.094c3.393,13.592,7.165,27.4,11.222,41.311a36.179,36.179,0,0,0-5.634,1.6v0l-.294.113C120.021,395.491,119.855,395.168,119.671,394.827Zm-10.77-22c1.743,2.3,3.44,4.62,5.007,6.98.811,1.162,1.558,2.351,2.3,3.532q.59.913,1.136,1.833-4.575-15.523-8.586-30.8-.867-3.442-1.713-6.865a98.514,98.514,0,0,1-4.119,17.91C104.94,367.813,106.956,370.292,108.9,372.825Zm1.171-39.606c.07-.669.157-1.346.277-2.028.286-1.687.5-3.449.968-5.173.433-1.743.913-3.5,1.438-5.247.41-1.175.83-2.317,1.274-3.459a100.177,100.177,0,0,1-10.473-13.36Q106.577,318.332,110.071,333.219ZM95.64,229.877l-.24-.636c-.138-.415-.415-1.005-.627-1.817a28.545,28.545,0,0,1-.728-2.942,31.783,31.783,0,0,1-.553-3.845,34.448,34.448,0,0,1-.138-4.528,36.327,36.327,0,0,1,.415-4.924,43.044,43.044,0,0,1,1.024-5.007c.48-1.66.987-3.227,1.6-4.9.6-1.392,1.346-3,2.056-4.389a44.908,44.908,0,0,1,2.342-3.919,34.752,34.752,0,0,1,2.339-3.193c-14.24-17.107,5.508-34.574,9.944-41.032,1.549-2.241,9.479-12.071,19.512-23.5,19.162-21.836,45.968-49.527,50.468-41.376,6.861,12.421-15.685,68.256-36.258,87.962a67.905,67.905,0,0,1-20.311,13.544l.005,0a61.174,61.174,0,0,1-20.164,4.987,85.661,85.661,0,0,0-6.762,13.317,54.366,54.366,0,0,0-3.974,17.5,44.894,44.894,0,0,0,.129,6.28c.129,1.531.267,2.416.267,2.416Z" transform="translate(1228.577 3537.524)" fill="#f49da1" opacity="0.1"/>
  </g>
</svg>
