<svg xmlns="http://www.w3.org/2000/svg" width="41.555" height="41.555" viewBox="0 0 41.555 41.555">
  <g id="Group_154" data-name="Group 154" transform="translate(16473 5645)">
    <circle id="Ellipse_19" data-name="Ellipse 19" cx="20.777" cy="20.777" r="20.777" transform="translate(-16473 -5645)" fill="#252829"/>
    <path id="Path_850" data-name="Path 850" d="M-3657.747-431.472c-.04-.084-.094-.164-.143-.249s-.1-.17-.155-.256c-.1-.174-.229-.344-.35-.521s-.252-.351-.385-.523-.267-.347-.4-.515l-.061-.075a6.34,6.34,0,0,1-5.927-1.967l-.006-.007-.033-.038-.011-.013-.039-.046-.024-.029a4.028,4.028,0,0,1-.256-.344l-.02-.029,0-.007a6.108,6.108,0,0,1-.48-5.046v0l0-.007h0l0-.008,0,0,0-.007.017-.032h0a.371.371,0,0,1,.079-.1h0l.008-.006c.351-.239,1.642-.606,5.1,1.322a4.212,4.212,0,0,1,1.26,1.05q-.077-.4-.147-.8-.046-.26-.089-.518a4.377,4.377,0,0,1-.15-.925q-.085-.551-.158-1.088c-.024-.055-.05-.114-.076-.177-.04-.094-.085-.194-.126-.3s-.094-.216-.14-.331-.1-.231-.149-.353-.1-.241-.156-.361-.1-.244-.156-.357-.1-.23-.16-.336-.107-.206-.166-.3l-.034-.054c-3.328-.619-3.811-.941-4.943-3.174a7.427,7.427,0,0,1-.717-2.506s0-.01,0-.014l0-.017a9.6,9.6,0,0,1,.027-2.36h0a.023.023,0,0,0,0,0v-.012l0-.015a0,0,0,0,1,0,0v0h0s0,0,0,0v0s1.614-.624,4.128.957l.032.021.01.006.022.015.011.008.021.014.011.008.021.015.01.007.027.02,0,0,.062.048.006,0,.024.019.007.006.024.02.006,0,.027.023h0c1.889,1.648,1.48,5.9,1.373,6.785a3.245,3.245,0,0,1,.242.337,5.606,5.606,0,0,1,.371.713c.079.183.15.369.213.551q-.062-.528-.112-1.037c-.145-1.453-.2-2.793-.2-3.98,0-.765.032-1.466.078-2.095l-.059-.061c-.6-.594-2.072-1.4-3.369-2.382-1.5-1.142-1.825-4.533-.23-5.451.036-.021.073-.041.112-.059a1.711,1.711,0,0,1,1.443.041h0l.037.016,0,0,.035.016,0,0,.029.014.006,0a5.475,5.475,0,0,1,3.777-3.655.761.761,0,0,1,.117.048h0c.45.227,1.365,1.15,1.918,4.553a4.422,4.422,0,0,1,.058.632v0c0,.013,0,.025,0,.037a.038.038,0,0,0,0,.005v.045c0,.009,0,.017,0,.025s0,.011,0,.017,0,.013,0,.019,0,.014,0,.021,0,.011,0,.017v.022s0,.009,0,.014,0,.017,0,.026,0,.006,0,.009v.029a.036.036,0,0,0,0,.005c0,.011,0,.022,0,.033h0a4.788,4.788,0,0,1-2.919,3.763,15.594,15.594,0,0,1-.752,2.371c-.018.58-.024,1.219-.006,1.91.032,1.177.138,2.5.3,3.942q.1.885.242,1.824a7.959,7.959,0,0,1,4.338-4.119,1.159,1.159,0,0,1,.215,0h.012a3.423,3.423,0,0,1,2.747,2.6l0,.008.008.03.009.034v.006a4.924,4.924,0,0,1,.145,1.266,2.607,2.607,0,0,1-.161.861l0,.008-.006.017c-.842,2.283-4.568,4.1-5.434,4.5-.038.1-.073.207-.106.313a8.509,8.509,0,0,0-.345,1.452l-.01.066q.105.428.217.859c.262,1.051.554,2.119.867,3.194a2.773,2.773,0,0,0-.407.114l-.05.02C-3657.719-431.421-3657.732-431.446-3657.747-431.472Zm-.832-1.7c.135.178.265.358.387.54.063.089.121.182.177.273q.045.07.087.14-.353-1.2-.664-2.38-.067-.265-.132-.529a7.606,7.606,0,0,1-.318,1.384C-3658.885-433.561-3658.729-433.369-3658.579-433.174Zm.089-3.064c.005-.051.012-.1.021-.156a3.949,3.949,0,0,1,.075-.4c.033-.134.07-.271.111-.4.032-.091.064-.18.1-.268-.111-.118-.283-.311-.476-.564l0,0-.006-.008c-.1-.136-.214-.289-.324-.458Q-3658.76-437.388-3658.49-436.237Zm-1.116-7.989-.018-.049a1.27,1.27,0,0,1-.048-.141,2.3,2.3,0,0,1-.057-.227,2.441,2.441,0,0,1-.042-.3,2.712,2.712,0,0,1-.011-.35,2.9,2.9,0,0,1,.032-.381,3.369,3.369,0,0,1,.079-.387c.037-.128.076-.249.124-.378.046-.107.1-.232.159-.34a3.26,3.26,0,0,1,.181-.3,2.642,2.642,0,0,1,.181-.247c-1.1-1.322.427-2.672.77-3.171.118-.174.731-.932,1.506-1.815l0,0c1.481-1.689,3.553-3.83,3.9-3.2.531.96-1.212,5.278-2.8,6.8a5.255,5.255,0,0,1-1.571,1.047h0a4.718,4.718,0,0,1-1.56.386,6.657,6.657,0,0,0-.523,1.03,4.19,4.19,0,0,0-.306,1.353,3.358,3.358,0,0,0,.009.485c.01.119.021.187.021.187Zm2.244-3.489c-.044-.017-.085-.034-.121-.049C-3657.446-447.749-3657.406-447.733-3657.362-447.716Z" transform="translate(-12792.652 -5177.36)" fill="#f49da1" stroke="rgba(0,0,0,0)" stroke-width="1"/>
  </g>
</svg>
