<svg id="Group_1039" data-name="Group 1039" xmlns="http://www.w3.org/2000/svg" width="30.435" height="30.435" viewBox="0 0 30.435 30.435">
  <rect id="Rectangle_33" data-name="Rectangle 33" width="30.435" height="30.435" fill="none"/>
  <path id="Path_3711" data-name="Path 3711" d="M9.7,9.726a.678.678,0,0,1,.678-.678H21.649a.678.678,0,1,1,0,1.356H10.376A.678.678,0,0,1,9.7,9.726Zm.678,4.654H21.649a.678.678,0,1,0,0-1.356H10.376a.678.678,0,0,0,0,1.356Zm0,3.975H21.649a.678.678,0,0,0,0-1.356H10.376a.678.678,0,0,0,0,1.356Zm8.114,2.619H10.376a.678.678,0,1,0,0,1.356H18.49a.678.678,0,1,0,0-1.356Zm10.955,3.44a4.945,4.945,0,0,1-9.251,2.435H9.233a3.846,3.846,0,0,1-3.842-3.842V8.371A3.846,3.846,0,0,1,9.233,4.529h13.56a3.846,3.846,0,0,1,3.842,3.842V19.958a4.95,4.95,0,0,1,2.811,4.456Zm-9.775,1.079a4.919,4.919,0,0,1,5.608-5.959V8.371a2.489,2.489,0,0,0-2.486-2.486H9.233A2.489,2.489,0,0,0,6.747,8.371V23.007a2.489,2.489,0,0,0,2.486,2.486Zm8.419-1.079A3.592,3.592,0,1,0,24.5,28.006a3.592,3.592,0,0,0,3.592-3.593Zm-1.866-.678H25.175V22.43a.678.678,0,0,0-1.356,0v1.984a.678.678,0,0,0,.678.678h1.726a.678.678,0,1,0,0-1.356Z" transform="translate(-2.391 -1.529)" fill="#f49da1"/>
</svg>
