<svg xmlns="http://www.w3.org/2000/svg" width="30.435" height="30.435" viewBox="0 0 30.435 30.435">
  <g id="Group_1039" data-name="Group 1039" transform="translate(0 0.111)">
    <rect id="Rectangle_33" data-name="Rectangle 33" width="30.435" height="30.435" transform="translate(0 -0.111)" fill="none"/>
    <path id="Path_3720" data-name="Path 3720" d="M6773,8186.176v-13.7h2.417v-3.625a6.85,6.85,0,1,1,13.7,0v3.625h2.417v13.7Zm1.611-1.612h15.312v-10.476h-15.312Zm2.418-15.713v3.625h10.476v-3.625a5.238,5.238,0,1,0-10.476,0Zm4.432,13.3v-2.66a1.513,1.513,0,0,1-.805-1.37,1.612,1.612,0,1,1,2.417,1.37v2.66Z" transform="translate(-6767 -8159.11)" fill="#f49da1"/>
  </g>
</svg>
