<svg xmlns="http://www.w3.org/2000/svg" width="96.104" height="129.209" viewBox="0 0 96.104 129.209">
  <path id="Path_833" data-name="Path 833" d="M12824.754,5346.822a2.025,2.025,0,0,1-.326-2.762l23.719-31.19a2.022,2.022,0,0,1,2.76-.326,1.618,1.618,0,0,1,.328,2.6l-23.719,31.2a1.665,1.665,0,0,1-1.3.809,1.22,1.22,0,0,1-.389.063A1.958,1.958,0,0,1,12824.754,5346.822Zm21.605-2.926a2.022,2.022,0,0,1-.324-2.756l11.857-15.6a2.251,2.251,0,0,1,2.764-.488,2.026,2.026,0,0,1,.322,2.764l-11.857,15.6a1.666,1.666,0,0,1-1.295.809,1.248,1.248,0,0,1-.393.065A1.978,1.978,0,0,1,12846.359,5343.9Zm-24.367-18.679a2.023,2.023,0,0,1-.322-2.764l11.855-15.6a1.966,1.966,0,0,1,3.086,2.437l-11.857,15.6a1.657,1.657,0,0,1-1.3.814,1.221,1.221,0,0,1-.391.061A1.284,1.284,0,0,1,12821.992,5325.216Zm35.9-11.377a5.266,5.266,0,0,1-3.572-5.035V5291.1a2.316,2.316,0,0,1,.975-1.949,2.282,2.282,0,0,1,2.277-.327l15.434,5.364a2.129,2.129,0,0,1,1.463,1.627,2.309,2.309,0,0,1-.328,2.11l-10.234,13.971a5.175,5.175,0,0,1-4.387,2.275A5.783,5.783,0,0,1,12857.893,5313.839Zm1.3-5.035a.347.347,0,0,0,.322.325h.164c.162,0,.326,0,.326-.162l8.279-11.37-9.092-3.088Zm40.615-10.073-39.967-13.644a2.688,2.688,0,0,1-1.627-1.626,2.817,2.817,0,0,1,.488-2.275l15.6-19.82-23.559,19.332a2.818,2.818,0,0,1-2.275.488l-23.881-8.119a5.234,5.234,0,0,1-.814-9.59l85.619-44.838a5.23,5.23,0,0,1,5.525.326,5.111,5.111,0,0,1,2.113,5.037l-10.4,70.346a5.014,5.014,0,0,1-2.436,3.739,4.442,4.442,0,0,1-2.766.972A4.76,4.76,0,0,1,12899.813,5298.731Zm-8.127-55.074a2.464,2.464,0,0,1,.164,3.25l-27.129,34.6,36.713,12.511h.164c.162,0,.162-.163.162-.326l10.4-70.347c0-.162,0-.325-.16-.325a.313.313,0,0,0-.49,0l-85.455,44.682c-.166,0-.166.164-.166.488a.352.352,0,0,0,.326.319l22.422,7.636,39.8-32.654a2.346,2.346,0,0,1,1.51-.532A2.482,2.482,0,0,1,12891.686,5243.658Z" transform="translate(-12821 -5218)" fill="#fff"/>
</svg>
