<svg xmlns="http://www.w3.org/2000/svg" width="60" height="60" viewBox="0 0 60 60">
  <g id="Group_1089" data-name="Group 1089" transform="translate(-205 -1365)">
    <rect id="Rectangle_54" data-name="Rectangle 54" width="60" height="60" transform="translate(205 1365)" fill="none"/>
    <path id="Path_3761" data-name="Path 3761" d="M-2280.025,8201.717a3.981,3.981,0,0,1-3.974-3.975v-25.783a3.981,3.981,0,0,1,3.974-3.975h13.791l4.24-5.511a1.208,1.208,0,0,1,.96-.473h16.575a1.21,1.21,0,0,1,.96.473l4.241,5.511h5.963a3.979,3.979,0,0,1,3.974,3.975v25.783a3.981,3.981,0,0,1-3.974,3.975Zm-1.551-3.975a1.553,1.553,0,0,0,1.551,1.552h46.731a1.553,1.553,0,0,0,1.551-1.552v-25.783a1.552,1.552,0,0,0-1.551-1.551h-6.56a1.211,1.211,0,0,1-.961-.474l-4.24-5.512h-15.382l-4.24,5.512a1.21,1.21,0,0,1-.96.474h-14.388a1.553,1.553,0,0,0-1.551,1.551v2.242h9.954a1.211,1.211,0,0,1,1.211,1.21v18.877a1.211,1.211,0,0,1-1.211,1.211h-9.954Zm0-4.665h8.742v-16.454h-8.742Zm15.094-9.608a13.751,13.751,0,0,1,13.736-13.735,13.736,13.736,0,0,1,13.737,13.735,13.736,13.736,0,0,1-13.737,13.736A13.736,13.736,0,0,1-2266.482,8183.469Zm2.422,0a11.314,11.314,0,0,0,11.314,11.314,11.313,11.313,0,0,0,11.313-11.314h0a11.326,11.326,0,0,0-11.311-11.312A11.314,11.314,0,0,0-2264.06,8183.469Zm17.068,0a5.761,5.761,0,0,0-5.754-5.755,1.211,1.211,0,0,1-1.212-1.212,1.212,1.212,0,0,1,1.212-1.211,8.188,8.188,0,0,1,8.177,8.178,1.212,1.212,0,0,1-1.211,1.212A1.212,1.212,0,0,1-2246.992,8183.469Z" transform="translate(2491.999 -6787.001)"/>
  </g>
</svg>
