<svg xmlns="http://www.w3.org/2000/svg" width="60" height="60" viewBox="0 0 60 60">
  <g id="Group_1089" data-name="Group 1089" transform="translate(-205 -1365)">
    <rect id="Rectangle_54" data-name="Rectangle 54" width="60" height="60" transform="translate(205 1365)" fill="none"/>
    <path id="Path_3758" data-name="Path 3758" d="M55.077,21.539H18.387V14.666H52.548V17.53a1.245,1.245,0,1,0,2.49,0V13.417a1.248,1.248,0,0,0-1.245-1.25H17.142a1.248,1.248,0,0,0-1.245,1.25v8.123h-.039A4.371,4.371,0,0,0,11.5,25.913V44.449a4.371,4.371,0,0,0,4.358,4.374h6.018v9.372a1.248,1.248,0,0,0,1.245,1.25H48.436a1.248,1.248,0,0,0,1.245-1.25V48.822h5.4a4.371,4.371,0,0,0,4.358-4.374V25.913A4.371,4.371,0,0,0,55.077,21.539ZM47.191,56.945H24.366V42.366H47.191Zm9.753-12.5a1.873,1.873,0,0,1-1.868,1.874h-5.4V42.366h1.453a1.25,1.25,0,0,0,0-2.5H19.8a1.25,1.25,0,0,0,0,2.5h2.076v3.957H15.858a1.873,1.873,0,0,1-1.868-1.874V25.913a1.873,1.873,0,0,1,1.868-1.874H55.077a1.873,1.873,0,0,1,1.868,1.874Zm-7.9-16.193a3.351,3.351,0,1,0,3.339,3.351A3.348,3.348,0,0,0,49.041,28.256Zm0,4.2a.851.851,0,1,1,.849-.851A.85.85,0,0,1,49.041,32.459Zm-9.762-4.2a3.351,3.351,0,1,0,3.339,3.351A3.348,3.348,0,0,0,39.278,28.256Zm0,4.2a.851.851,0,1,1,.848-.851A.85.85,0,0,1,39.278,32.459Z" transform="translate(199.5 1358.833)" fill="#252829"/>
  </g>
</svg>
