<svg xmlns="http://www.w3.org/2000/svg" width="30.435" height="30.435" viewBox="0 0 30.435 30.435">
  <g id="Group_1039" data-name="Group 1039" transform="translate(0 0.111)">
    <rect id="Rectangle_33" data-name="Rectangle 33" width="30.435" height="30.435" transform="translate(0 -0.111)" fill="none"/>
    <path id="Path_3721" data-name="Path 3721" d="M99.015,84.756a.86.86,0,0,1,0,1.721H96.667a3.666,3.666,0,0,1-3.657-3.657V70.277a3.666,3.666,0,0,1,3.657-3.657h2.348a.86.86,0,0,1,0,1.721H96.667a1.945,1.945,0,0,0-1.937,1.937V82.819a1.945,1.945,0,0,0,1.937,1.937Zm12.136-7.568-5.639,5.762a.859.859,0,0,1-1.47-.6l0-2.779H97.752a.86.86,0,0,1-.861-.861V74.463a.86.86,0,0,1,.861-.86h6.288V70.824a.862.862,0,0,1,1.518-.554l5.593,5.715A.858.858,0,0,1,111.151,77.187Zm-1.812-.6-3.578-3.656v1.533a.86.86,0,0,1-.86.86H98.612v2.525H104.9a.86.86,0,0,1,.86.86v1.533Z" transform="translate(-87.01 -61.731)" fill="#f49da1"/>
  </g>
</svg>
