<svg id="visa-logo-png-2026" xmlns="http://www.w3.org/2000/svg" width="100.17" height="25.078" viewBox="0 0 100.17 25.078">
  <g id="_ffffffff" data-name="#ffffffff">
    <path id="Path_3647" data-name="Path 3647" d="M0,0H100.17V25.078H0V0M82.937,4.039a12.738,12.738,0,0,0-4.461,2.105l-.042-.076a9.547,9.547,0,0,0-1.2-.79c-.379-.16-.721-.4-1.114-.528,0-.009,0-.028-.006-.037-.158-.056-.315-.113-.468-.179a3.287,3.287,0,0,0-.635-.217c-.091-.028-.18-.056-.269-.085-.348-.107-.7-.206-1.053-.291-.194-.038-.387-.08-.581-.114-.323-.082-.658-.093-.983-.165a28.613,28.613,0,0,0-3.181,0c-.346.077-.706.082-1.048.172-.194.035-.386.077-.576.126a2.963,2.963,0,0,0-.345.083l-.156.036c-.112.035-.223.069-.333.107l-.155.042a4.073,4.073,0,0,1-.494.136c-.14.051-.273.118-.413.163-.314.125-.622.266-.928.408-.347.2-.723.351-1.061.571-.459.288-.9.61-1.331.934a11.617,11.617,0,0,0-1.316,1.3,8.776,8.776,0,0,0-1.779,3.136,9.268,9.268,0,0,0-.4,2.4,9,9,0,0,0,.523,2.837,9.282,9.282,0,0,0,2.431,3.565,12.134,12.134,0,0,0,1.8,1.389c.342.2.705.367,1.048.567.125.059.251.119.379.174s.227.114.34.176l.147.038c.137.058.273.119.412.174.218.054.434.117.648.184a5.933,5.933,0,0,0,.774.22q.25.071.507.126a15.945,15.945,0,0,0,4.253.256c-.1-.026-.207-.049-.309-.071a5.72,5.72,0,0,0,1.7-.149c.229-.066.468-.091.694-.172l.223-.037c.233-.081.47-.152.708-.221.088-.031.177-.06.267-.089.127-.029.252-.071.377-.112s.228-.1.346-.147c.264-.109.517-.243.781-.355.4-.242.838-.415,1.217-.691.26-.153.481-.365.735-.52l-.015.052v.064a7.351,7.351,0,0,0,1.469.919,9.668,9.668,0,0,0,2.239.925,12.076,12.076,0,0,0,1.338.357c.256.049.514.095.77.152a15.475,15.475,0,0,0,5.008-.157,12.088,12.088,0,0,0,1.286-.35,10.1,10.1,0,0,0,2.416-1.018,10.018,10.018,0,0,0,1.6-1.038,9.472,9.472,0,0,0,3.423-5,8.2,8.2,0,0,0-.211-4.723,9.359,9.359,0,0,0-2.162-3.39c-.348-.284-.638-.632-1-.9A11.59,11.59,0,0,0,93,5.18a10.958,10.958,0,0,0-2.451-1,14.97,14.97,0,0,0-2.389-.519c-.33-.04-.664-.006-.992-.06a16.172,16.172,0,0,0-2.2.048,17.354,17.354,0,0,0-2.039.387M31.393,6.111A6.647,6.647,0,0,0,27.5,8.08a4,4,0,0,0-.957,3.3,4.077,4.077,0,0,0,1.922,2.475c.765.522,1.638.844,2.447,1.286a2.687,2.687,0,0,1,.968.789,1,1,0,0,1,.029,1.061,1.723,1.723,0,0,1-.876.689,6.236,6.236,0,0,1-2.739.17,9.523,9.523,0,0,1-2.9-.925c-.131.712-.243,1.427-.374,2.14-.048.372-.154.735-.168,1.111a13.158,13.158,0,0,0,3.469.709,10.051,10.051,0,0,0,5.25-.878A4.642,4.642,0,0,0,36.043,17.1a3.715,3.715,0,0,0-.305-2.833,5.881,5.881,0,0,0-2.484-2.031c-.556-.256-1.107-.522-1.639-.824-.393-.249-.858-.508-.993-.988a.979.979,0,0,1,.479-1.01,3.229,3.229,0,0,1,1.888-.442,7.1,7.1,0,0,1,3.242.718c.17-1.043.372-2.08.525-3.125a10.832,10.832,0,0,0-5.363-.451m-30.321.12-.054.235A17.884,17.884,0,0,1,5.2,8.076,4.244,4.244,0,0,0,5.8,8.4l.053.087a3.647,3.647,0,0,0-.644-.353C6.369,12.325,7.568,16.5,8.72,20.69c1.4.013,2.8.016,4.2,0a2.517,2.517,0,0,0,.228-.48c.681-1.568,1.349-3.14,2.04-4.7l-.025-.049a6.715,6.715,0,0,0,.48-1.013q1.782-4.113,3.565-8.227c-1.4.006-2.807,0-4.21,0-.2.589-.452,1.162-.675,1.744q-1.6,4.059-3.2,8.119c-.145-.2-.121-.461-.189-.687a11.27,11.27,0,0,0-.344-1.464q-.1-.685-.263-1.358c-.28-1.438-.606-2.866-.9-4.3a4.155,4.155,0,0,0-.4-1.353A1.492,1.492,0,0,0,8.353,6.4a4.134,4.134,0,0,0-1.571-.17c-1.9.008-3.806,0-5.709,0m19.772-.017Q19.591,13.456,18.356,20.7c1.319,0,2.638,0,3.957,0,.831-4.828,1.648-9.659,2.494-14.485-1.321-.008-2.641,0-3.962,0m21.524.475a3.974,3.974,0,0,0-.834,1.437q-2.794,6.291-5.592,12.579c1.386,0,2.772,0,4.158,0,.273-.729.547-1.457.836-2.181,1.7,0,3.409.018,5.114.006.179.721.327,1.45.488,2.176,1.227,0,2.455,0,3.682,0-1.1-4.828-2.143-9.667-3.235-14.5-.968,0-1.937,0-2.905,0a2.563,2.563,0,0,0-1.712.475M96.823,18.721c.013.128.131.213.2.312.1,0,.21,0,.317,0,.1-.093.254-.173.249-.327.016-.121-.1-.186-.172-.261.029.1.061.194.1.29-.071.08-.143.16-.213.24l-.273-.009a.612.612,0,0,1-.046-.523c-.058.088-.183.153-.16.275m.254-.123c0,.083,0,.165,0,.247l.108-.04.132.039c0-.079,0-.158,0-.237Z" fill="none"/>
    <path id="Path_3648" data-name="Path 3648" d="M597.069,145.7c.273-.676.5-1.37.8-2.034.429,1.8.795,3.613,1.207,5.415a1.731,1.731,0,0,1-.346.033c-.994-.007-1.989,0-2.983,0C596.159,147.967,596.635,146.843,597.069,145.7Z" transform="translate(-553.665 -133.521)" fill="#fff"/>
    <path id="Path_3649" data-name="Path 3649" d="M1163.063,153.181a3.848,3.848,0,0,1,1.458-.34,10.542,10.542,0,0,1,1.4.249,8.379,8.379,0,0,1-.218,1.089c-.095-.042-.189-.086-.284-.125a2.774,2.774,0,0,0-1.115-.114,1.2,1.2,0,0,0-.783.356c-.041.037-.081.077-.118.117a2,2,0,0,0-.461,1.609.992.992,0,0,0,.485.758,2.19,2.19,0,0,0,1.643-.011l.148-.028c-.057.288-.108.578-.172.865-.022.073-.044.145-.065.217-.1.022-.2.045-.3.069a3.312,3.312,0,0,1-1.845-.107,1.825,1.825,0,0,1-1.159-1.31,3.217,3.217,0,0,1,.328-2.243A3.124,3.124,0,0,1,1163.063,153.181Z" transform="translate(-1079.539 -142.043)" fill="#fff"/>
    <path id="Path_3650" data-name="Path 3650" d="M847.13,154.46c.613.013,1.227,0,1.84,0,.014.761.016,1.522.021,2.283,0,.25,0,.5-.008.75l.109,0c.006-.042.02-.126.027-.169.326-.863.7-1.705,1.039-2.565a1.782,1.782,0,0,1,.133-.292c.665,0,1.331,0,2,0-.178.861-.355,1.722-.518,2.586-.093.352-.152.711-.221,1.067q-.071.3-.121.61c-.045.225-.095.449-.141.674-.108,0-.216,0-.323,0q-.479,0-.957,0c.213-1.265.491-2.52.721-3.782-.193.446-.4.887-.576,1.338-.367.808-.714,1.625-1.067,2.439l-.254,0H848.2c-.026-1.238-.081-2.475-.1-3.714a16.581,16.581,0,0,0-.338,1.675l0,.029-.04-.056c-.09.694-.277,1.371-.393,2.061-.112,0-.222.006-.332.006q-.436,0-.87,0c.277-1.557.634-3.1.935-4.653C847.074,154.656,847.1,154.558,847.13,154.46Z" transform="translate(-786.349 -143.549)" fill="#fff"/>
    <path id="Path_3651" data-name="Path 3651" d="M1310.858,154.492c.425,0,.849,0,1.275,0-.329,1.649-.644,3.3-1,4.948l-.29,0c-.3,0-.6,0-.906,0,0-.111.011-.222.017-.332a3.211,3.211,0,0,1-.516.29l.037.022a2.123,2.123,0,0,1-1.412-.081,1.39,1.39,0,0,1-.771-.984,2.631,2.631,0,0,1,.981-2.626,1.808,1.808,0,0,1,2.063-.016c.075.073.149.15.222.226.092-.378.168-.761.236-1.144.018-.1.04-.2.062-.3m-1.6,1.913a1.6,1.6,0,0,0-.348.279h-.007a1.716,1.716,0,0,0-.316.952.828.828,0,0,0,.232.739.845.845,0,0,0,.809.063c.087-.063.174-.126.264-.188a1.656,1.656,0,0,0,.381-1.19.913.913,0,0,0-.349-.656A4.992,4.992,0,0,0,1309.253,156.405Z" transform="translate(-1214.89 -143.577)" fill="#fff"/>
    <path id="Path_3652" data-name="Path 3652" d="M1032.08,159.284c.43,0,.858,0,1.289,0a2.229,2.229,0,0,0-.119.651,1.159,1.159,0,0,1,.615-.011c-.05.311-.1.622-.173.929l-.183,0c-.166,0-.331,0-.495.007-.014.094-.026.188-.038.281-.084.482-.21.955-.282,1.439a.442.442,0,0,0,.047.315,1.431,1.431,0,0,0,.55.135l.128.141q-.061.312-.117.623c-.093.032-.183.064-.273.1a7.329,7.329,0,0,1-.965.019.744.744,0,0,1-.706-.644,4.223,4.223,0,0,1,.151-1.178c.167-.836.335-1.672.514-2.5C1032.044,159.483,1032.061,159.383,1032.08,159.284Z" transform="translate(-958.494 -148.031)" fill="#fff"/>
    <path id="Path_3653" data-name="Path 3653" d="M1215.995,166.738a8.807,8.807,0,0,1,1.825-.15,1.637,1.637,0,0,1,1.138.434,1.445,1.445,0,0,1,.2,1.261c-.163.793-.287,1.594-.453,2.387-.109,0-.215,0-.321,0-.243,0-.484,0-.726,0,0-.133,0-.265,0-.4-.061.057-.121.113-.179.171a2.461,2.461,0,0,1-1.588.226,1.011,1.011,0,0,1-.643-.538,1.456,1.456,0,0,1,.218-1.412,2.971,2.971,0,0,1,2.177-.6c.1,0,.2.009.305.015a.8.8,0,0,0-.012-.491,2.445,2.445,0,0,0-1.036-.112,7.127,7.127,0,0,1-.814.028c.079.019.16.035.243.054-.177.014-.354.025-.53.039a4.1,4.1,0,0,0,.109-.665l.089-.239m.438,2.5c-.016.124-.084.254-.011.372a.564.564,0,0,0,.815.177,1.027,1.027,0,0,0,.56-.9,3.855,3.855,0,0,0-.963.042A1.036,1.036,0,0,0,1216.432,169.241Z" transform="translate(-1129.307 -154.805)" fill="#fff"/>
    <path id="Path_3654" data-name="Path 3654" d="M928.22,166.76a4.383,4.383,0,0,1,1.77-.035,1.812,1.812,0,0,1,.532.2,1.155,1.155,0,0,1,.422.8,4,4,0,0,1-.091.789c-.1.526-.2,1.053-.3,1.58-.037.213-.066.429-.115.64l-.054,0h-.272c-.243,0-.486,0-.728,0,0-.129.006-.257.01-.385a5.193,5.193,0,0,1-.451.289c-.078.028-.154.058-.23.088-.516.027-1.127.151-1.541-.243a1.287,1.287,0,0,1-.029-1.633c.069-.075.145-.144.219-.215.165-.1.333-.182.5-.27a3.917,3.917,0,0,1,1.5-.186c.1,0,.2.01.3.016a.767.767,0,0,0,0-.494,5.357,5.357,0,0,0-2.133.016,2.442,2.442,0,0,1,.177-.7c0-.01,0-.03,0-.04v-.058c.06-.218.35-.1.516-.158m-.043,2.5.009.017a.472.472,0,0,0,.231.68q.186-.006.375-.006l.153-.078a1.059,1.059,0,0,0,.579-.916,7.826,7.826,0,0,0-.891.016A1.612,1.612,0,0,0,928.177,169.263Z" transform="translate(-861.391 -154.878)" fill="#fff"/>
    <path id="Path_3655" data-name="Path 3655" d="M983.565,166.756a6.439,6.439,0,0,1,1.967-.037,4.929,4.929,0,0,1-.163.938c-.107-.008-.213-.017-.319-.023a6.558,6.558,0,0,0-.913,0,.341.341,0,0,0-.335.283c-.011.186.19.251.315.337l.213.076.244.1a1.133,1.133,0,0,1,.734.745,1.683,1.683,0,0,1-.174,1.044.992.992,0,0,1-.431.34,2.519,2.519,0,0,1-.988.2,7.684,7.684,0,0,1-1.7-.093c.04-.293.1-.582.149-.875a6.784,6.784,0,0,0,1.541.1.549.549,0,0,0,.32-.189c.055-.109,0-.231-.008-.344a3.6,3.6,0,0,1-1.363-.785,1.2,1.2,0,0,1,.045-1.333A1.339,1.339,0,0,1,983.565,166.756Z" transform="translate(-912.649 -154.886)" fill="#fff"/>
    <path id="Path_3656" data-name="Path 3656" d="M1272.784,167.441c.371-.167.8-.032,1.2-.08.005.161,0,.321,0,.482l-.09.061.129,0a1.4,1.4,0,0,1,.574-.5,1.588,1.588,0,0,1,.548-.066,5.944,5.944,0,0,0-.443,1.133l-.012.013c-.089,0-.177,0-.264,0a.838.838,0,0,0-.471.491,15.239,15.239,0,0,0-.561,2.4h-.328c-.317,0-.634,0-.951,0,.159-.936.362-1.864.524-2.8a5.9,5.9,0,0,0,.15-1.1Z" transform="translate(-1182.246 -155.519)" fill="#fff"/>
    <path id="Path_3657" data-name="Path 3657" d="M1065.76,167.7a1.98,1.98,0,0,1,.919-.569,3.513,3.513,0,0,1,1.408.012c.071.015.144.028.218.042a1.578,1.578,0,0,1,.794,1,2.717,2.717,0,0,1-.1,1.064c-.008.047-.022.138-.03.185a.837.837,0,0,1-.3.022l-.077-.006c-.726-.028-1.453,0-2.179-.016-.011.109-.025.219-.034.329a1.024,1.024,0,0,0,.375.4,2.918,2.918,0,0,0,1.56.023c.176-.049.35-.105.528-.152-.068.34-.131.681-.226,1.014a3.884,3.884,0,0,1-.444,0l.156.051a5.026,5.026,0,0,1-1.93-.011,1.99,1.99,0,0,1-.795-.413,1.717,1.717,0,0,1-.465-1.353,2.4,2.4,0,0,1,.625-1.624m1.129.345c-.068.064-.142.12-.215.177a4.2,4.2,0,0,0-.195.429c.357.006.715,0,1.073,0l.367,0a1.007,1.007,0,0,0-.1-.543l-.15-.1A1.016,1.016,0,0,0,1066.889,168.046Z" transform="translate(-989.889 -155.264)" fill="#fff"/>
    <path id="Path_3658" data-name="Path 3658" d="M1122.071,167.613a3.01,3.01,0,0,1,.453-.041c.24.112.537-.1.744.069a5.511,5.511,0,0,1-.079.566,2.5,2.5,0,0,1,.552-.569c.22-.032.44-.065.662-.078a6,6,0,0,0-.465,1.095c-.142.05-.3.062-.432.126a.96.96,0,0,0-.29.368,16.959,16.959,0,0,0-.587,2.436l-.321,0q-.48,0-.958,0c.229-1.245.5-2.482.691-3.734C1122.051,167.771,1122.061,167.692,1122.071,167.613Z" transform="translate(-1042.136 -155.723)" fill="#fff"/>
    <path id="Path_3659" data-name="Path 3659" d="M1370.72,215.523c.149.008.331-.035.437.1a.261.261,0,0,1,.009.424c-.116.141-.305.1-.463.107-.085-.116-.263-.218-.2-.384a1.366,1.366,0,0,1,.217-.252m-.025.184c-.116.026-.134.243-.008.266.112-.019.125-.249.008-.266m.32.056c-.084.07-.009.273.105.184.086-.067,0-.278-.105-.184m-.21.229C1370.833,216.229,1371.008,215.863,1370.805,215.993Z" transform="translate(-1273.676 -200.298)" fill="#fff"/>
  </g>
  <g id="_fe9900ff" data-name="#fe9900ff" transform="translate(1.019 3.571)">
    <path id="Path_3660" data-name="Path 3660" d="M1067.974,51.024a17.356,17.356,0,0,1,2.039-.387,16.173,16.173,0,0,1,2.2-.048c.328.054.662.02.992.06a14.97,14.97,0,0,1,2.389.519,10.957,10.957,0,0,1,2.451,1,11.591,11.591,0,0,1,1.767,1.137c.365.263.655.611,1,.9a9.361,9.361,0,0,1,2.162,3.39,8.2,8.2,0,0,1,.211,4.723,9.471,9.471,0,0,1-3.423,5,12.907,12.907,0,0,1-4.02,2.056,12.1,12.1,0,0,1-1.286.35,15.475,15.475,0,0,1-5.008.157c-.256-.057-.514-.1-.77-.152a12.078,12.078,0,0,1-1.338-.357,9.666,9.666,0,0,1-2.239-.925,7.351,7.351,0,0,1-1.469-.919v-.064l.015-.052a6.58,6.58,0,0,0,1.079-.95c-.779-.023-1.56.013-2.338-.015a4.2,4.2,0,0,1-.912-.972c1.388-.028,2.777,0,4.166-.013a10.706,10.706,0,0,0,.691-1.047c-1.86.006-3.72,0-5.58,0-.175-.331-.344-.664-.49-1.008,2.1-.011,4.2-.006,6.3,0,.1-.013.234.023.3-.081.139-.268.2-.57.314-.849a2.353,2.353,0,0,0,1.369.714,6.361,6.361,0,0,0,1.063-.006c.175-.047.353-.084.532-.124.011-.057.034-.168.045-.225.1-.024.2-.047.3-.069.021-.072.043-.144.065-.217a1.334,1.334,0,0,0,.813.632,1.874,1.874,0,0,0,1.668-.456c-.006.136-.007.273-.011.41h1.075c.007-.1.015-.192.025-.288.106,0,.212,0,.321,0,.167-.793.291-1.594.453-2.387a1.446,1.446,0,0,0-.2-1.261,1.637,1.637,0,0,0-1.138-.434,8.8,8.8,0,0,0-1.825.15l-.089.239c-.1.038-.2.071-.3.1q-.09.433-.173.869a5.05,5.05,0,0,1,2.009-.1c.065.088.132.174.2.261a2.971,2.971,0,0,0-2.177.6,1.423,1.423,0,0,0-.624.816,2.19,2.19,0,0,1-1.643.011.992.992,0,0,1-.485-.758,2,2,0,0,1,.461-1.609,2.2,2.2,0,0,1,1.906.079c.008-.016.026-.048.035-.064l.009-.016c.025-.119.047-.239.066-.359.1.039.189.083.284.125a8.379,8.379,0,0,0,.218-1.089,10.55,10.55,0,0,0-1.4-.249,3.845,3.845,0,0,0-1.457.34,3.013,3.013,0,0,0-1.022.713c-.08-.006-.158-.011-.236-.013-.223.013-.442.046-.662.078a1.167,1.167,0,0,1,.668-.113c-.039-.184-.078-.367-.119-.55-2,0-4,0-6,0-.426,0-.853.015-1.277-.021a7.259,7.259,0,0,1,.35-1.021q3.291.005,6.582,0a3.755,3.755,0,0,0-.57-1.035c-.8-.008-1.6.06-2.4,0-1.036.029-2.072.008-3.108,0a12.181,12.181,0,0,1,.67-1.021c1.392-.006,2.784.013,4.176-.01a6.539,6.539,0,0,0-.7-.851c-.061-.05-.111-.131-.2-.133-.776-.052-1.559.045-2.333-.045a7.564,7.564,0,0,1,1.13-.974,12.738,12.738,0,0,1,4.461-2.105M1081,57.9c-.023.1-.044.2-.062.3l-.284-.018c-.1.293-.136.6-.212.9l.037.037a1.809,1.809,0,0,0-2.063.016c-.078.041-.155.083-.232.124a2.883,2.883,0,0,0-.7.678,5.96,5.96,0,0,1,.443-1.133,1.588,1.588,0,0,0-.548.066,1.4,1.4,0,0,0-.574.5l-.129,0,.09-.061c.008-.161.01-.321,0-.482-.4.048-.828-.087-1.2.08v.033a.189.189,0,0,0-.02.181l-.288-.007q-.337,2.016-.756,4.018c.436,0,.872,0,1.308,0,.008-.1.022-.192.033-.288h.328a15.2,15.2,0,0,1,.561-2.4c.065-.042.13-.085.2-.126.114-.035.225-.07.341-.1-.035.31-.215.583-.237.9a2.4,2.4,0,0,0,.135,1.264,1.735,1.735,0,0,0,.517.6,1.844,1.844,0,0,0,1.565.105c.139-.056.306-.1.362-.258l.129.014-.052.281c.406.018.812.006,1.218.01.023-.1.047-.193.072-.289l.29,0c.354-1.645.669-3.3,1-4.948-.425.007-.85.006-1.274,0m1.076,4.31a1.358,1.358,0,0,0-.217.252c-.063.166.115.268.2.384.158-.007.347.034.463-.107a.261.261,0,0,0-.009-.424C1082.411,62.175,1082.229,62.218,1082.08,62.211Z" transform="translate(-986.055 -50.557)" fill="#fe9900"/>
    <path id="Path_3661" data-name="Path 3661" d="M14.474,88.131c1.9-.007,3.806,0,5.709,0a4.134,4.134,0,0,1,1.571.17,1.492,1.492,0,0,1,.675.521,4.155,4.155,0,0,1,.4,1.353c.292,1.435.619,2.864.9,4.3q.162.673.263,1.358a9.255,9.255,0,0,0-1.777-2.873l-.011-.013a7.345,7.345,0,0,0-1.4-1.4l-.016-.013a9.989,9.989,0,0,0-1.531-1.137L19.2,90.3a4.241,4.241,0,0,1-.592-.328,17.885,17.885,0,0,0-4.186-1.609Z" transform="translate(-14.42 -85.472)" fill="#fe9900"/>
    <path id="Path_3662" data-name="Path 3662" d="M1326.585,185.392c.253-.007.548-.059.755.129a.973.973,0,0,1,.22.819,1.933,1.933,0,0,1-.258.806.845.845,0,0,1-.809-.063.828.828,0,0,1-.233-.739,1.718,1.718,0,0,1,.317-.952Z" transform="translate(-1233.589 -175.856)" fill="#fe9900"/>
    <path id="Path_3663" data-name="Path 3663" d="M1232.76,203.4a3.8,3.8,0,0,1,.973-.068,1.7,1.7,0,0,1-.168.617.564.564,0,0,1-.815-.177C1232.676,203.652,1232.743,203.521,1232.76,203.4Z" transform="translate(-1146.653 -192.533)" fill="#fe9900"/>
    <path id="Path_3664" data-name="Path 3664" d="M1051.06,210.39a3.944,3.944,0,0,0,.64.023l.131,0c-.023.084-.047.167-.066.251a5.578,5.578,0,0,0-.136.653l-.305.108.024-.034c.09-.034.18-.066.273-.1q.056-.312.117-.623l-.128-.141A1.43,1.43,0,0,1,1051.06,210.39Z" transform="translate(-977.83 -199.099)" fill="#fe9900"/>
    <path id="Path_3665" data-name="Path 3665" d="M1372.15,218.14c.117.017.1.247-.008.266C1372.016,218.383,1372.034,218.166,1372.15,218.14Z" transform="translate(-1276.15 -206.302)" fill="#fe9900"/>
    <path id="Path_3666" data-name="Path 3666" d="M1377.459,218.624c.107-.095.191.117.105.184C1377.45,218.9,1377.375,218.694,1377.459,218.624Z" transform="translate(-1281.138 -206.729)" fill="#fe9900"/>
    <path id="Path_3667" data-name="Path 3667" d="M1374.95,221.8C1375.154,221.671,1374.978,222.037,1374.95,221.8Z" transform="translate(-1278.84 -209.677)" fill="#fe9900"/>
    <path id="Path_3668" data-name="Path 3668" d="M1370.584,261.4c-.023-.122.1-.187.16-.275a.613.613,0,0,0,.046.523l.274.009c.07-.081.141-.16.212-.24-.035-.1-.067-.193-.1-.29.069.075.187.14.172.261.005.154-.153.234-.248.327-.108,0-.213,0-.317,0C1370.715,261.617,1370.6,261.533,1370.584,261.4Z" transform="translate(-1274.78 -246.255)" fill="#fe9900"/>
    <path id="Path_3669" data-name="Path 3669" d="M1374.181,263.28l.242.009c0,.079,0,.158,0,.237l-.132-.039-.108.04C1374.177,263.445,1374.178,263.363,1374.181,263.28Z" transform="translate(-1278.122 -248.253)" fill="#fe9900"/>
  </g>
  <g id="_cc0000ff" data-name="#cc0000ff" transform="translate(7.381 3.617)">
    <path id="Path_3670" data-name="Path 3670" d="M838.975,51.42c.343-.09.7-.095,1.048-.172a28.615,28.615,0,0,1,3.181,0c.324.073.66.083.983.165.194.035.386.076.581.114.353.085.7.184,1.053.291.089.03.178.057.269.085a3.285,3.285,0,0,1,.635.217c.153.066.309.124.468.179,0,.009,0,.028.006.037.393.129.735.368,1.114.528a9.554,9.554,0,0,1,1.2.79l.042.076a7.577,7.577,0,0,0-1.13.974c.773.09,1.556-.007,2.333.045.085,0,.136.083.2.133a6.574,6.574,0,0,1,.7.851c-1.392.023-2.785,0-4.176.01-.241.328-.463.67-.67,1.021,1.036.007,2.073.028,3.108,0,.8.056,1.6-.012,2.4,0a3.751,3.751,0,0,1,.57,1.035q-3.291,0-6.582,0a7.275,7.275,0,0,0-.35,1.021c.425.036.851.019,1.277.021,2,0,4,0,6,0,.041.183.08.367.119.55a1.166,1.166,0,0,0-.668.113,2.5,2.5,0,0,0-.552.569,5.51,5.51,0,0,0,.079-.566c-.207-.167-.5.043-.744-.069a3.016,3.016,0,0,0-.453.041c-.01.079-.02.158-.029.238l-.324.006c-.208,1.346-.479,2.68-.74,4.017.43,0,.861,0,1.292-.006q.018-.143.038-.286l.321,0a16.982,16.982,0,0,1,.587-2.436,1.563,1.563,0,0,1,.685-.146,2.737,2.737,0,0,0,.365,2.208c-.115.279-.174.581-.314.849-.061.1-.2.067-.3.081-2.1-.006-4.2-.011-6.3,0,.146.344.315.677.49,1.008,1.86,0,3.72,0,5.58,0a10.707,10.707,0,0,1-.691,1.047c-1.389.012-2.778-.015-4.166.013a4.2,4.2,0,0,0,.913.972c.778.028,1.558-.008,2.337.015a6.577,6.577,0,0,1-1.079.95c-.253.155-.475.367-.735.52-.379.276-.818.449-1.217.691-.264.112-.517.245-.781.355-.118.044-.233.1-.346.147s-.25.083-.377.112c-.09.029-.179.058-.267.089-.237.069-.475.141-.708.221l-.223.037c-.226.081-.465.106-.694.172a5.719,5.719,0,0,1-1.7.149c.1.022.206.045.309.071a15.944,15.944,0,0,1-4.253-.256q-.257-.055-.507-.126a5.927,5.927,0,0,1-.773-.22c-.215-.068-.43-.131-.648-.184-.139-.054-.275-.116-.412-.174l-.147-.038c-.113-.061-.227-.119-.341-.176s-.254-.115-.379-.174c-.343-.2-.706-.364-1.048-.567a12.133,12.133,0,0,1-1.8-1.389,9.281,9.281,0,0,1-2.431-3.565,8.994,8.994,0,0,1-.523-2.837,9.277,9.277,0,0,1,.4-2.4,8.779,8.779,0,0,1,1.779-3.136,11.632,11.632,0,0,1,1.316-1.3c.434-.324.872-.646,1.331-.934.338-.22.714-.367,1.061-.571.306-.143.614-.283.928-.408.14-.045.273-.112.413-.163a4.075,4.075,0,0,0,.495-.136l.155-.042c.11-.038.221-.071.333-.107l.156-.036a2.971,2.971,0,0,1,.345-.083c.19-.049.382-.091.576-.126M831.861,58.5c-.028.1-.056.2-.076.3-.112.019-.309-.039-.334.121-.333,1.607-.656,3.216-1,4.821h1.229c.012-.1.025-.194.038-.29.109,0,.22,0,.332-.006.116-.689.3-1.367.393-2.061l.04.056,0-.029c.025.776.027,1.552.081,2.327.288,0,.577,0,.866.006.042-.1.084-.2.127-.295l.254,0c.353-.814.7-1.63,1.068-2.439-.176.911-.34,1.824-.545,2.728.434.009.868,0,1.3.006l.055-.292c.107,0,.215,0,.323,0,.046-.225.1-.449.141-.674a1.153,1.153,0,0,0,.672.939,1.784,1.784,0,0,0,.858.093,2.381,2.381,0,0,0,1.014-.411c0,.116,0,.231,0,.348.357,0,.714,0,1.072-.009.008-.094.017-.188.027-.282h.272c0,.088,0,.174,0,.262a6.517,6.517,0,0,0,1.295.1,2.427,2.427,0,0,0,1.6-.379l.031,0c.045-.054.092-.107.139-.16a.993.993,0,0,0,.432-.341.838.838,0,0,0,.765.879,3.365,3.365,0,0,0,1.126-.108c.048-.069.087-.143.136-.213l.305-.108a5.566,5.566,0,0,1,.136-.653,1.878,1.878,0,0,0,1.618,1.075,5.286,5.286,0,0,0,1.787-.142l.077-.229-.156-.051a3.887,3.887,0,0,0,.444,0c.1-.333.157-.675.226-1.014-.177.047-.352.1-.528.152a2.918,2.918,0,0,1-1.56-.023,1.026,1.026,0,0,1-.375-.4c.727.019,1.455,0,2.183.011.035-.107.071-.213.108-.319a.837.837,0,0,0,.3-.022l.03-.185a2.719,2.719,0,0,0,.1-1.064,1.577,1.577,0,0,0-.794-1l-.218-.042a3.512,3.512,0,0,0-1.408-.012,1.979,1.979,0,0,0-.919.569,2.444,2.444,0,0,0-.983,2.449,3.945,3.945,0,0,1-.64-.023.442.442,0,0,1-.047-.315c.072-.484.2-.957.282-1.439.149,0,.3,0,.449,0,.025-.1.052-.2.083-.293l.183,0c.075-.307.123-.618.173-.929a1.159,1.159,0,0,0-.615.011,2.229,2.229,0,0,1,.119-.651c-.43,0-.859,0-1.289,0-.019.1-.036.2-.057.3l-.307,0c-.2.911-.38,1.829-.564,2.744a1.132,1.132,0,0,0-.734-.745l-.244-.1-.213-.076c-.125-.086-.326-.15-.315-.337a10.793,10.793,0,0,1,1.219.009c.008-.1.018-.195.029-.293.105.006.211.014.318.023a4.919,4.919,0,0,0,.163-.938,6.438,6.438,0,0,0-1.967.037,1.339,1.339,0,0,0-.861.5c-.23.083-.35.309-.5.482a1.156,1.156,0,0,0-.422-.8,1.813,1.813,0,0,0-.532-.2,4.383,4.383,0,0,0-1.77.035c-.166.054-.456-.06-.516.158v.058l-.022-.006c-.115.082-.24.146-.357.225a3.8,3.8,0,0,0-.151.859,6.63,6.63,0,0,1,1.4-.2c.293-.018.66.028.793.332a3.918,3.918,0,0,0-1.5.186c-.17.088-.338.174-.5.27-.074.071-.15.141-.219.215a1.378,1.378,0,0,0-.552.6c.069-.357.128-.716.221-1.067.164-.864.341-1.725.519-2.586-.666,0-1.332,0-2,0a1.787,1.787,0,0,0-.134.292c-.114.012-.225.024-.337.032-.223.665-.552,1.293-.773,1.957l-.056,0c-.006-.761-.007-1.522-.021-2.283C833.088,58.5,832.474,58.511,831.861,58.5Z" transform="translate(-778.46 -51.204)" fill="#c00"/>
    <path id="Path_3671" data-name="Path 3671" d="M104.48,136.29l.016.013-.008-.006Z" transform="translate(-104.48 -130.279)" fill="#c00"/>
    <path id="Path_3672" data-name="Path 3672" d="M1187.3,172.239a3.042,3.042,0,0,1,1.823.133c-.009.016-.027.047-.035.064a2.2,2.2,0,0,0-1.906-.079C1187.218,172.316,1187.257,172.276,1187.3,172.239Z" transform="translate(-1110.696 -163.604)" fill="#c00"/>
    <path id="Path_3673" data-name="Path 3673" d="M1084.405,183.44c.215.017.46-.041.648.094a.8.8,0,0,1,.23.336c-.358,0-.715,0-1.073,0A4.156,4.156,0,0,1,1084.405,183.44Z" transform="translate(-1015 -174.099)" fill="#c00"/>
    <path id="Path_3674" data-name="Path 3674" d="M979.07,194.63c.1-.527.2-1.053.3-1.58a1.272,1.272,0,0,0,.357.54,5.979,5.979,0,0,0,1.2.625c.01.054.029.16.039.214a6.782,6.782,0,0,1-1.541-.1l-.052-.006c-.01.1-.02.2-.03.294Z" transform="translate(-917.288 -183.03)" fill="#c00"/>
    <path id="Path_3675" data-name="Path 3675" d="M944.626,203.448a5.334,5.334,0,0,1,.913-.034,2.028,2.028,0,0,1-.2.622l-.153.078q-.189,0-.375.006a.472.472,0,0,1-.231-.68c.018.032.055.1.072.129C944.646,203.54,944.633,203.479,944.626,203.448Z" transform="translate(-885.167 -192.656)" fill="#c00"/>
  </g>
  <g id="_0c54a8ff" data-name="#0c54a8ff" transform="translate(5.206 5.964)">
    <path id="Path_3676" data-name="Path 3676" d="M358.351,84.571a10.832,10.832,0,0,1,5.363.451c-.153,1.045-.355,2.083-.525,3.125a7.1,7.1,0,0,0-3.242-.718,3.228,3.228,0,0,0-1.888.442.979.979,0,0,0-.479,1.01c.135.48.6.74.993.988.532.3,1.083.569,1.639.824a5.881,5.881,0,0,1,2.484,2.031A3.715,3.715,0,0,1,363,95.557a4.642,4.642,0,0,1-2.472,2.913,10.052,10.052,0,0,1-5.25.878,13.158,13.158,0,0,1-3.469-.709c.014-.377.12-.74.168-1.111.131-.713.243-1.428.374-2.14a9.523,9.523,0,0,0,2.9.925,6.236,6.236,0,0,0,2.74-.17,1.723,1.723,0,0,0,.876-.689,1,1,0,0,0-.029-1.061,2.687,2.687,0,0,0-.968-.789c-.809-.442-1.682-.764-2.447-1.286a4.077,4.077,0,0,1-1.922-2.475,4,4,0,0,1,.957-3.3A6.647,6.647,0,0,1,358.351,84.571Z" transform="translate(-332.164 -84.424)" fill="#0c54a8"/>
    <path id="Path_3677" data-name="Path 3677" d="M83.489,87.971c1.4,0,2.807,0,4.21,0Q85.91,92.08,84.134,96.2a6.715,6.715,0,0,1-.48,1.013l.025.049c-.691,1.563-1.359,3.136-2.04,4.7a2.516,2.516,0,0,1-.228.48c-1.4.019-2.8.017-4.2,0-1.152-4.189-2.351-8.365-3.514-12.552a3.647,3.647,0,0,1,.644.352,9.989,9.989,0,0,1,1.531,1.137l.008.007.008.006a7.345,7.345,0,0,1,1.4,1.4l0,.007.006.006a9.255,9.255,0,0,1,1.777,2.873,11.268,11.268,0,0,1,.344,1.464c.069.226.045.491.189.687q1.6-4.059,3.2-8.119C83.037,89.133,83.284,88.561,83.489,87.971Z" transform="translate(-73.7 -87.719)" fill="#0c54a8"/>
    <path id="Path_3678" data-name="Path 3678" d="M262.338,87.963c1.321,0,2.641,0,3.962,0-.846,4.826-1.663,9.657-2.494,14.485-1.319,0-2.638,0-3.957,0Q261.1,95.207,262.338,87.963Z" transform="translate(-246.7 -87.712)" fill="#0c54a8"/>
    <path id="Path_3679" data-name="Path 3679" d="M515.236,88.445a2.563,2.563,0,0,1,1.712-.475c.969,0,1.937,0,2.905,0,1.091,4.829,2.139,9.668,3.235,14.5-1.227-.008-2.455,0-3.682,0-.161-.726-.309-1.455-.488-2.176-1.7.011-3.409-.009-5.114-.006-.289.723-.563,1.452-.836,2.181-1.386,0-2.772,0-4.158,0q2.791-6.292,5.592-12.579a3.975,3.975,0,0,1,.834-1.437m1.035,5.494c-.434,1.139-.91,2.263-1.319,3.41.994.006,1.989,0,2.983,0a1.732,1.732,0,0,0,.346-.033c-.412-1.8-.778-3.618-1.207-5.415C516.773,92.569,516.543,93.263,516.27,93.939Z" transform="translate(-478.073 -87.719)" fill="#0c54a8"/>
    <path id="Path_3680" data-name="Path 3680" d="M886.66,187.59c.006-.25.008-.5.008-.75l.057,0a2.137,2.137,0,0,0,.071.576c-.007.042-.021.126-.027.169Z" transform="translate(-829.231 -179.605)" fill="#0c54a8"/>
    <path id="Path_3681" data-name="Path 3681" d="M981.458,211.04l.052.006c-.045.292-.109.581-.149.875a7.687,7.687,0,0,0,1.7.093,2.519,2.519,0,0,0,.988-.2c-.047.053-.094.107-.139.16l-.031,0a8.081,8.081,0,0,1-1.171.147c-.354-.006-.705-.05-1.057-.081a.617.617,0,0,1-.336-.1,3.386,3.386,0,0,1,.118-.608Z" transform="translate(-917.195 -202.096)" fill="#0c54a8"/>
  </g>
  <g id="_030164ff" data-name="#030164ff" transform="translate(8.797 11.042)">
    <path id="Path_3682" data-name="Path 3682" d="M124.53,156.31l.011.013-.006-.006Z" transform="translate(-124.53 -156.31)" fill="#030164"/>
    <path id="Path_3683" data-name="Path 3683" d="M1149.192,158.373a3.011,3.011,0,0,1,1.022-.713,3.122,3.122,0,0,0-1.06,1.05,3.217,3.217,0,0,0-.328,2.243,1.825,1.825,0,0,0,1.159,1.31,3.313,3.313,0,0,0,1.845.107l-.045.225c-.179.04-.357.076-.532.124a6.362,6.362,0,0,1-1.063.006,2.351,2.351,0,0,1-1.368-.714,2.737,2.737,0,0,1-.365-2.208,1.564,1.564,0,0,0-.685.146.959.959,0,0,1,.29-.368c.136-.064.29-.076.432-.126a6.006,6.006,0,0,1,.465-1.095C1149.034,158.362,1149.112,158.367,1149.192,158.373Z" transform="translate(-1075.487 -157.565)" fill="#030164"/>
    <path id="Path_3684" data-name="Path 3684" d="M841.5,158.771c.025-.16.222-.1.334-.121-.3,1.553-.658,3.1-.935,4.653q.434,0,.87,0c-.013.1-.026.193-.038.29H840.5C840.841,161.987,841.165,160.378,841.5,158.771Z" transform="translate(-789.923 -158.485)" fill="#030164"/>
    <path id="Path_3685" data-name="Path 3685" d="M888.336,158.743c.112-.008.223-.02.337-.032-.335.86-.713,1.7-1.039,2.565a2.139,2.139,0,0,1-.071-.576C887.784,160.036,888.114,159.408,888.336,158.743Z" transform="translate(-833.661 -158.54)" fill="#030164"/>
    <path id="Path_3686" data-name="Path 3686" d="M1350.62,159.449c.076-.3.116-.605.212-.9l.284.018c-.069.383-.144.766-.237,1.144-.074-.076-.147-.153-.222-.226Z" transform="translate(-1264.007 -158.392)" fill="#030164"/>
    <path id="Path_3687" data-name="Path 3687" d="M1026.794,163.47l.306,0c-.179.833-.347,1.669-.514,2.5a4.223,4.223,0,0,0-.151,1.178.744.744,0,0,0,.706.644,7.34,7.34,0,0,0,.965-.019l-.024.034c-.048.07-.087.144-.136.213a3.363,3.363,0,0,1-1.126.108.838.838,0,0,1-.765-.879,1.683,1.683,0,0,0,.174-1.044C1026.413,165.3,1026.59,164.381,1026.794,163.47Z" transform="translate(-962.367 -162.964)" fill="#030164"/>
    <path id="Path_3688" data-name="Path 3688" d="M1188.85,168.661a1.2,1.2,0,0,1,.784-.356,2.774,2.774,0,0,1,1.115.114c-.019.12-.041.239-.066.359l-.009.016A3.042,3.042,0,0,0,1188.85,168.661Z" transform="translate(-1113.665 -167.451)" fill="#030164"/>
    <path id="Path_3689" data-name="Path 3689" d="M1267.625,169.411a.187.187,0,0,1,.02-.181,5.9,5.9,0,0,1-.15,1.1c-.162.936-.365,1.864-.524,2.8.317,0,.634,0,.951,0-.011.1-.025.191-.033.288-.437,0-.872,0-1.308,0q.419-2,.756-4.018Z" transform="translate(-1185.904 -168.317)" fill="#030164"/>
    <path id="Path_3690" data-name="Path 3690" d="M896.035,172.318c.18-.451.383-.892.576-1.338-.23,1.262-.508,2.517-.721,3.782q.478,0,.956,0l-.055.292c-.434,0-.868,0-1.3-.006C895.695,174.142,895.859,173.229,896.035,172.318Z" transform="translate(-841.028 -169.944)" fill="#030164"/>
    <path id="Path_3691" data-name="Path 3691" d="M931.728,171.17l.022.006c0,.01,0,.03,0,.04a2.44,2.44,0,0,0-.177.7,5.356,5.356,0,0,1,2.133-.016.768.768,0,0,1,0,.494c-.1-.006-.2-.012-.3-.016-.133-.3-.5-.35-.793-.332a6.626,6.626,0,0,0-1.4.2,3.808,3.808,0,0,1,.151-.859C931.488,171.316,931.613,171.252,931.728,171.17Z" transform="translate(-874.234 -170.12)" fill="#030164"/>
    <path id="Path_3692" data-name="Path 3692" d="M869.29,173.595a16.566,16.566,0,0,1,.338-1.675c.022,1.238.077,2.475.1,3.714h.634c-.043.1-.085.2-.127.295-.289,0-.578,0-.866-.006C869.317,175.147,869.315,174.371,869.29,173.595Z" transform="translate(-816.679 -170.817)" fill="#030164"/>
    <path id="Path_3693" data-name="Path 3693" d="M1116.82,171.686l.324-.006c-.187,1.252-.462,2.489-.691,3.734q.478-.007.958,0-.02.143-.038.286c-.431.006-.862,0-1.292.006C1116.341,174.367,1116.612,173.032,1116.82,171.686Z" transform="translate(-1046.035 -170.594)" fill="#030164"/>
    <path id="Path_3694" data-name="Path 3694" d="M1219.313,172.424c.1-.033.2-.066.3-.1a4.051,4.051,0,0,1-.109.665c.176-.013.353-.025.53-.039-.083-.019-.164-.035-.243-.054a7.139,7.139,0,0,0,.815-.028,2.443,2.443,0,0,1,1.035.112.8.8,0,0,1,.012.491c-.1-.006-.2-.011-.305-.015q-.1-.129-.2-.261a5.05,5.05,0,0,0-2.009.1Q1219.223,172.857,1219.313,172.424Z" transform="translate(-1141.815 -171.189)" fill="#030164"/>
    <path id="Path_3695" data-name="Path 3695" d="M1299.609,172.144c.076-.041.153-.083.232-.124a2.632,2.632,0,0,0-.981,2.626,1.391,1.391,0,0,0,.771.984,2.123,2.123,0,0,0,1.412.081c-.057.158-.224.2-.363.258a1.843,1.843,0,0,1-1.565-.105,1.732,1.732,0,0,1-.517-.6,2.4,2.4,0,0,1-.136-1.264c.022-.313.2-.586.237-.9-.116.032-.227.067-.341.1-.067.042-.132.084-.2.126a.839.839,0,0,1,.471-.491c.087,0,.175,0,.264,0l.012-.013A2.885,2.885,0,0,1,1299.609,172.144Z" transform="translate(-1215.253 -170.91)" fill="#030164"/>
    <path id="Path_3696" data-name="Path 3696" d="M983.391,175.533c.152-.174.272-.4.5-.482a1.2,1.2,0,0,0-.045,1.333,3.6,3.6,0,0,0,1.363.785c.012.113.064.235.008.344a.549.549,0,0,1-.32.189l-.039-.214a5.981,5.981,0,0,1-1.2-.625,1.274,1.274,0,0,1-.357-.54A4.021,4.021,0,0,0,983.391,175.533Z" transform="translate(-922.635 -173.726)" fill="#030164"/>
    <path id="Path_3697" data-name="Path 3697" d="M1059.719,178.5a2.443,2.443,0,0,1,.983-2.449,2.4,2.4,0,0,0-.625,1.624,1.718,1.718,0,0,0,.465,1.353,1.987,1.987,0,0,0,.795.413,5.027,5.027,0,0,0,1.93.011l-.077.229a5.286,5.286,0,0,1-1.787.142,1.878,1.878,0,0,1-1.618-1.075c.019-.084.043-.167.066-.251Z" transform="translate(-993.628 -174.656)" fill="#030164"/>
    <path id="Path_3698" data-name="Path 3698" d="M1087.185,179.7a1.015,1.015,0,0,1,.785-.027l.15.1a1.008,1.008,0,0,1,.1.543l-.366,0a.8.8,0,0,0-.23-.336c-.188-.135-.432-.077-.648-.094C1087.043,179.82,1087.117,179.763,1087.185,179.7Z" transform="translate(-1018.982 -177.96)" fill="#030164"/>
    <path id="Path_3699" data-name="Path 3699" d="M1007.25,180.548a.341.341,0,0,1,.335-.283,6.563,6.563,0,0,1,.913,0c-.011.1-.021.2-.029.293A10.793,10.793,0,0,0,1007.25,180.548Z" transform="translate(-944.893 -178.556)" fill="#030164"/>
    <path id="Path_3700" data-name="Path 3700" d="M1054.418,181.479c.164-.006.329-.009.495-.007-.031.1-.058.195-.083.293-.151,0-.3,0-.449,0C1054.393,181.667,1054.405,181.573,1054.418,181.479Z" transform="translate(-988.694 -179.694)" fill="#030164"/>
    <path id="Path_3701" data-name="Path 3701" d="M1331.218,181.454a5,5,0,0,1,.666,0,.914.914,0,0,1,.349.656,1.657,1.657,0,0,1-.381,1.19c-.09.062-.177.125-.264.188a1.932,1.932,0,0,0,.258-.806.972.972,0,0,0-.221-.819c-.207-.188-.5-.136-.755-.129A1.6,1.6,0,0,1,1331.218,181.454Z" transform="translate(-1245.652 -179.667)" fill="#030164"/>
    <path id="Path_3702" data-name="Path 3702" d="M1210.455,197.706a1.423,1.423,0,0,1,.624-.816,1.455,1.455,0,0,0-.218,1.412,1.011,1.011,0,0,0,.643.538,2.462,2.462,0,0,0,1.588-.226c.058-.058.118-.114.179-.171,0,.133,0,.265,0,.4.242,0,.483,0,.726,0-.01.1-.018.191-.025.288H1212.9c0-.136,0-.273.01-.41a1.873,1.873,0,0,1-1.668.456,1.333,1.333,0,0,1-.813-.632c.064-.287.115-.576.172-.865Z" transform="translate(-1133.721 -194.023)" fill="#030164"/>
    <path id="Path_3703" data-name="Path 3703" d="M921.382,198.446a1.379,1.379,0,0,1,.552-.6,1.287,1.287,0,0,0,.029,1.633c.415.394,1.025.27,1.541.243.076-.03.152-.06.23-.088a5.2,5.2,0,0,0,.451-.289c0,.128-.008.256-.01.385.242,0,.485,0,.728,0-.01.094-.019.188-.027.282-.358.012-.715.006-1.072.009,0-.117,0-.232,0-.348a2.382,2.382,0,0,1-1.014.411,1.785,1.785,0,0,1-.858-.093,1.152,1.152,0,0,1-.672-.939Q921.311,198.749,921.382,198.446Z" transform="translate(-864.978 -194.916)" fill="#030164"/>
    <path id="Path_3704" data-name="Path 3704" d="M945.41,199.56a1.608,1.608,0,0,1,.456-.288,7.82,7.82,0,0,1,.891-.016,1.059,1.059,0,0,1-.579.916,2.026,2.026,0,0,0,.2-.622,5.328,5.328,0,0,0-.913.034c.007.03.02.091.027.122-.018-.033-.054-.1-.072-.129Z" transform="translate(-887.422 -196.217)" fill="#030164"/>
    <path id="Path_3705" data-name="Path 3705" d="M1233.34,199.6a1.036,1.036,0,0,1,.4-.31,3.848,3.848,0,0,1,.963-.042,1.026,1.026,0,0,1-.56.9,1.7,1.7,0,0,0,.168-.617A3.8,3.8,0,0,0,1233.34,199.6Z" transform="translate(-1155.012 -196.201)" fill="#030164"/>
    <path id="Path_3706" data-name="Path 3706" d="M1082.75,201c.009-.11.023-.22.035-.329.726.017,1.453-.013,2.179.016l.077.006q-.056.159-.108.319C1084.205,200.995,1083.477,201.018,1082.75,201Z" transform="translate(-1015.06 -197.536)" fill="#030164"/>
    <path id="Path_3707" data-name="Path 3707" d="M976.812,215.215l.276-.015a3.392,3.392,0,0,0-.118.608.617.617,0,0,0,.336.1c.352.031.7.076,1.057.081a8.085,8.085,0,0,0,1.17-.147,2.427,2.427,0,0,1-1.6.379,6.518,6.518,0,0,1-1.295-.1c0-.088,0-.174,0-.262l.054,0C976.746,215.644,976.775,215.428,976.812,215.215Z" transform="translate(-916.446 -211.04)" fill="#030164"/>
    <path id="Path_3708" data-name="Path 3708" d="M1338.43,220.13a3.231,3.231,0,0,0,.517-.29c-.007.11-.013.221-.018.332.3-.006.6,0,.906,0-.026.1-.049.193-.072.289-.406,0-.812.008-1.218-.01l.052-.281-.129-.014Z" transform="translate(-1252.678 -215.352)" fill="#030164"/>
  </g>
</svg>
