<svg id="whatsapp" xmlns="http://www.w3.org/2000/svg" width="34.676" height="34.676" viewBox="0 0 34.676 34.676">
  <path id="Path_3767" data-name="Path 3767" d="M29.648,4.983A17.543,17.543,0,0,0,17.4,0,17.212,17.212,0,0,0,2.45,25.773L0,34.676l9.153-2.387a18.15,18.15,0,0,0,8.259,2.091c15.363,0,23.01-18.586,12.215-29.34Z" fill="#eceff1"/>
  <path id="Path_3768" data-name="Path 3768" d="M16.487,30.552h-.032a14.558,14.558,0,0,1-7.824-2.3L3.214,29.656,4.666,24.39l-.345-.542a14.258,14.258,0,0,1-2.19-7.6c0-12.7,15.525-19.057,24.509-10.078C35.6,15.056,29.309,30.552,16.487,30.552Z" transform="translate(0.947 0.874)" fill="#4caf50"/>
  <path id="Path_3769" data-name="Path 3769" d="M22.636,17.845l-.013.108c-.435-.217-2.553-1.253-2.947-1.4-.886-.328-.636-.052-2.336,1.9-.253.282-.5.3-.933.108a11.726,11.726,0,0,1-3.472-2.146,13.108,13.108,0,0,1-2.4-2.991c-.423-.731.462-.835,1.269-2.361a.794.794,0,0,0-.036-.757c-.108-.217-.971-2.341-1.332-3.187s-.7-.737-.971-.737a2.15,2.15,0,0,0-1.977.5C5.157,9.444,5.745,12.088,7.74,14.9c3.921,5.132,6.01,6.077,9.831,7.389a5.978,5.978,0,0,0,2.716.175c.829-.131,2.553-1.042,2.913-2.06a3.576,3.576,0,0,0,.26-2.059c-.107-.2-.39-.3-.824-.5Z" transform="translate(2.658 2.826)" fill="#fafafa"/>
</svg>
